<svg id="Ebene_1" data-name="Ebene 1" xmlns="http://www.w3.org/2000/svg" xmlns:xlink="http://www.w3.org/1999/xlink" viewBox="0 0 34.59 38.86"><defs><style>.cls-1{fill:none;}.cls-2{clip-path:url(#clip-path);}.cls-3{fill:#fff;}</style><clipPath id="clip-path" transform="translate(0 0)"><rect class="cls-1" width="34.59" height="38.86"/></clipPath></defs><title>icon1</title><g class="cls-2"><path class="cls-3" d="M34.35,36.18,31.25,38a1.79,1.79,0,0,0,3.11-1.79m-2.71-4.7-3.1,1.79,2.39,4.14L34,35.61Zm-.21-8.81a6,6,0,1,0-2.2,8.22,6,6,0,0,0,2.2-8.22m1-.6a7.21,7.21,0,1,1-9.85-2.64,7.22,7.22,0,0,1,9.85,2.64M8.12,21.64H18.17a9.36,9.36,0,0,1,.89-1.43H8.12a.71.71,0,0,0,0,1.43m0-3.25H20.93c.25-.18.52-.36.79-.52A8.84,8.84,0,0,1,23.94,17H8.12a.71.71,0,1,0,0,1.42m0,6.5h9.14a9.18,9.18,0,0,1,.25-1.42H8.12a.71.71,0,0,0-.71.72.7.7,0,0,0,.71.71M28.79,37.31h0l0-.06H3.88a2.33,2.33,0,0,1-2.33-2.32v-31A2.33,2.33,0,0,1,3.88,1.55H28.71A2.33,2.33,0,0,1,31,3.88V18.09a8.94,8.94,0,0,1,1.55,1.22V3.88A3.89,3.89,0,0,0,28.71,0H3.88A3.88,3.88,0,0,0,0,3.88v31A3.88,3.88,0,0,0,3.88,38.8H28.71a4,4,0,0,0,.88-.11ZM10.89,13.67,12.25,15l1.36-1.35L12.46,10.9h0l.44-.5a2,2,0,0,1-.67.12,1.8,1.8,0,0,1-.67-.13l.44.51h0Zm.16-3.54a3.56,3.56,0,0,1-1.48-2.8,2.67,2.67,0,1,1,5.35,0,3.56,3.56,0,0,1-1.48,2.8c2.1.53,3.65,2.35,3.65,3.7,0,1.59-9.69,1.59-9.69,0,0-1.35,1.55-3.16,3.64-3.7m5.24,18h1.27a8.5,8.5,0,0,1-.29-1.42h-1a.71.71,0,0,0,0,1.42M18,33.84a.71.71,0,0,1,.72-.71H21.2a9.13,9.13,0,0,0,3.43,1.4l-.15,0H18.75a.71.71,0,0,1-.72-.72" transform="translate(0 0)"/></g></svg>