<svg id="Ebene_1" data-name="Ebene 1" xmlns="http://www.w3.org/2000/svg" xmlns:xlink="http://www.w3.org/1999/xlink" viewBox="0 0 46.96 39.61"><defs><style>.cls-1{fill:none;}.cls-2{clip-path:url(#clip-path);}.cls-3{fill:#fff;}</style><clipPath id="clip-path" transform="translate(0 0)"><rect class="cls-1" width="46.96" height="39.61"/></clipPath></defs><title>icon4</title><g class="cls-2"><path class="cls-3" d="M44.47,37.36h-42A.37.37,0,0,1,2.13,37V21.16a5.33,5.33,0,0,0,3.43,1.26H20.1v1.29a3.38,3.38,0,1,0,6.75,0V22.42H41.41a5.33,5.33,0,0,0,3.43-1.26V37a.37.37,0,0,1-.36.38M22.23,17.55h2.5v2.62h-2.5Zm0,4.87h2.5v1.29a1.25,1.25,0,1,1-2.5,0ZM2.13,8.16a.37.37,0,0,1,.36-.38h42a.37.37,0,0,1,.36.38v8.37a3.54,3.54,0,0,1-3.43,3.63H26.86V16.43a1.1,1.1,0,0,0-1.06-1.13H21.16a1.1,1.1,0,0,0-1.06,1.13v3.74H5.55a3.54,3.54,0,0,1-3.43-3.63ZM18.24,2.25H28.71V5.53H18.24ZM44.47,5.53H30.84V1.13A1.1,1.1,0,0,0,29.78,0H17.18a1.1,1.1,0,0,0-1.06,1.13v4.4H2.49A2.57,2.57,0,0,0,0,8.16V37a2.57,2.57,0,0,0,2.49,2.63h42A2.57,2.57,0,0,0,47,37V8.16a2.57,2.57,0,0,0-2.48-2.63" transform="translate(0 0)"/></g></svg>