<svg id="Ebene_1" data-name="Ebene 1" xmlns="http://www.w3.org/2000/svg" xmlns:xlink="http://www.w3.org/1999/xlink" viewBox="0 0 43.23 40.42"><defs><style>.cls-1{fill:none;}.cls-2{clip-path:url(#clip-path);}.cls-3{fill:#fff;}</style><clipPath id="clip-path" transform="translate(0 0)"><rect class="cls-1" width="43.23" height="40.42"/></clipPath></defs><title>icon2</title><g class="cls-2"><path class="cls-3" d="M11.4,16.88h2.29L11.4,18.44Zm0-12.19H23.32V16.61H17.93l-2-.87a.68.68,0,0,0-.65.06l-1.18.81H11.4ZM23.94,21.42a.68.68,0,0,0,.75-.15L29,16.88h6.49V28.8H32.42V18.14a.68.68,0,0,0-.68-.68h-.68a.68.68,0,0,0-.68.68V28.8H26.32V23.63a.68.68,0,0,0-.68-.68H25a.68.68,0,0,0-.68.68V28.8h-.7V21.27Zm-.35-4.55h2.58L23.9,19.19l-.31-.13Zm0-12.19H35.51V16.61H29.29l2.4-2.44.11,1.44a.68.68,0,0,0,.73.63l.67,0a.68.68,0,0,0,.63-.73l-.3-4.08a.68.68,0,0,0-.73-.62l-4.08.3a.68.68,0,0,0-.62.73l0,.67a.68.68,0,0,0,.73.63L30,13l-3.56,3.61H23.59Zm-.27,14.25-4.76-2.06h4.76ZM20.23,28.8v-7a.68.68,0,0,0-.68-.68h-.68a.68.68,0,0,0-.68.68v7H14.13V22.41a.68.68,0,0,0-.68-.68h-.68a.68.68,0,0,0-.68.68V28.8h-.7V20.9l4.4-3,7.52,3.26V28.8Zm-15.67-4A.68.68,0,0,0,5,25h.13a.68.68,0,0,0,.38-.12l5.64-3.85V28.8H8V26.07a.68.68,0,0,0-.68-.68H6.68a.68.68,0,0,0-.68.68V28.8H4.92a.14.14,0,0,0,0,.27H6V36a.68.68,0,0,0,.68.68h.68A.68.68,0,0,0,8,36V29.07h3.09V36a.14.14,0,1,0,.27,0V29.07h.7V36a.68.68,0,0,0,.68.68h.68a.68.68,0,0,0,.68-.68V29.07h4.06V36a.68.68,0,0,0,.68.68h.68a.68.68,0,0,0,.68-.68V29.07h3.09V36a.14.14,0,1,0,.27,0V29.07h.7V36a.68.68,0,0,0,.68.68h.68a.68.68,0,0,0,.68-.68V29.07h4.06V36a.68.68,0,0,0,.68.68h.68a.68.68,0,0,0,.68-.68V29.07h3.09V36a.14.14,0,1,0,.27,0V29.07h4.69a.14.14,0,1,0,0-.27H35.78V16.88h4.69a.14.14,0,1,0,0-.27H35.78V4.69h4.69a.14.14,0,1,0,0-.27H35.78V2.48a.14.14,0,1,0-.27,0V4.42H23.59V2.48a.14.14,0,1,0-.27,0V4.42H11.4V2.48a.14.14,0,1,0-.27,0V4.42H4.92a.14.14,0,0,0,0,.27h6.21V16.61H4.92a.14.14,0,0,0,0,.27h6.21v1.75L4.35,23.26a.68.68,0,0,0-.18.94Z" transform="translate(0 0)"/><path class="cls-3" d="M42.55,38.38H2V.68A.68.68,0,0,0,1.35,0H.68A.68.68,0,0,0,0,.68V39.74a.68.68,0,0,0,.68.68H42.55a.68.68,0,0,0,.68-.68v-.68a.68.68,0,0,0-.68-.68" transform="translate(0 0)"/></g></svg>