<svg id="Ebene_1" data-name="Ebene 1" xmlns="http://www.w3.org/2000/svg" xmlns:xlink="http://www.w3.org/1999/xlink" viewBox="0 0 38.18 40.08"><defs><style>.cls-1{fill:none;}.cls-2{clip-path:url(#clip-path);}.cls-3{fill:#fff;}</style><clipPath id="clip-path" transform="translate(-0.09 0)"><rect class="cls-1" x="0.09" width="38.18" height="40.08"/></clipPath></defs><title>icon3</title><g class="cls-2"><path class="cls-3" d="M5.66,32.55a1.3,1.3,0,0,1,0,2.6,1.3,1.3,0,0,1,0-2.6m0,4.38a3.09,3.09,0,0,0,0-6.17,3.09,3.09,0,0,0,0,6.17" transform="translate(-0.09 0)"/><path class="cls-3" d="M15.1,32.55a1.3,1.3,0,1,1-1.25,1.3,1.28,1.28,0,0,1,1.25-1.3m0,4.38a3.09,3.09,0,1,0-3-3.08,3,3,0,0,0,3,3.08" transform="translate(-0.09 0)"/><path class="cls-3" d="M28.83,38.14l-4.19-21.8,7.57-1.58,4.19,21.8Zm-5-26.21,7.57-1.59L31.87,13,24.3,14.59Zm-1.62-8.4,7.57-1.59L31,8.6l-7.57,1.59ZM19,9.78H11.24V3H19Zm0,4.5H11.24V11.57H19Zm0,24H11.24V16.07H19ZM9.52,9.78H1.8V3H9.52Zm0,4.5H1.8V11.57H9.52Zm0,24H1.8V16.07H9.52Zm28.72-1.22L31.25.72a.89.89,0,0,0-.36-.57A.83.83,0,0,0,30.24,0L21,2a.83.83,0,0,0-.32.14.87.87,0,0,0-.85-.89H.94a.87.87,0,0,0-.85.89V39.19a.87.87,0,0,0,.85.89H19.82a.87.87,0,0,0,.85-.89V4.83l6.65,34.53a.87.87,0,0,0,.84.72l.17,0,9.25-1.94a.86.86,0,0,0,.54-.38.93.93,0,0,0,.13-.67" transform="translate(-0.09 0)"/><path class="cls-3" d="M33,32.73a1.3,1.3,0,0,1-1,1.53l-.25,0a1.26,1.26,0,0,1-1.22-1,1.34,1.34,0,0,1,.18-1,1.24,1.24,0,0,1,.79-.55l.25,0a1.26,1.26,0,0,1,1.22,1M31.19,30a2.94,2.94,0,0,0-1.88,1.32,3.17,3.17,0,0,0-.44,2.32,3,3,0,0,0,2.9,2.48,2.87,2.87,0,0,0,.58-.06,3.09,3.09,0,0,0,2.32-3.63,3,3,0,0,0-2.9-2.48,2.87,2.87,0,0,0-.58.06" transform="translate(-0.09 0)"/></g></svg>