<svg id="Ebene_1" data-name="Ebene 1" xmlns="http://www.w3.org/2000/svg" viewBox="0 0 170.16 31.83"><defs><style>.cls-1{fill:#1d1d1b;}.cls-2{fill:#b71928;}.cls-3{fill:none;stroke:#b71928;stroke-miterlimit:10;stroke-width:0.5px;}</style></defs><title>logo</title><path class="cls-1" d="M4.57,14.18l-.88,2.16H.16L5.08,3.91H8.7l4.81,12.43H10l-.83-2.16ZM6.89,7.75h0l-1.37,4H8.24Z"/><path class="cls-1" d="M14.55,3.91h3.32L24,11.56h0V3.91H27.3V16.34H24L17.9,8.72h0v7.62H14.55Z"/><path class="cls-1" d="M29.48,3.91h4.71a6.33,6.33,0,0,1,6.49,6.17v0a6.34,6.34,0,0,1-6.47,6.21H29.48Zm3.31,9.65h.74c2,0,3.67-1.05,3.67-3.48A3.32,3.32,0,0,0,33.56,6.6h-.78Z"/><path class="cls-1" d="M52.83,16.34H48.7l-3.13-4.78h0v4.78H42.22V3.91h5c2.52,0,4.44,1.17,4.44,3.82a3.36,3.36,0,0,1-2.79,3.51Zm-7.3-6.86h.32c1.08,0,2.3-.2,2.3-1.55s-1.22-1.55-2.3-1.55h-.32Z"/><path class="cls-1" d="M57,14.18l-.88,2.16H52.59L57.5,3.91h3.62l4.81,12.43H62.39l-.83-2.16Zm2.32-6.43h0l-1.37,4h2.76Z"/><path class="cls-1" d="M63.1,1.67A1.67,1.67,0,1,1,61.43,0,1.67,1.67,0,0,1,63.1,1.67Z"/><path class="cls-1" d="M59,1.67A1.67,1.67,0,1,1,57.33,0,1.67,1.67,0,0,1,59,1.67Z"/><path class="cls-1" d="M75,11.41a2.81,2.81,0,0,0-2.07-1,2.86,2.86,0,0,0-2.8,2.83,2.68,2.68,0,0,0,.82,1.9,3,3,0,0,0,2,.85A2.93,2.93,0,0,0,75,15.08v.54a3.17,3.17,0,1,1-2-5.55,3,3,0,0,1,2,.8Z"/><path class="cls-1" d="M82.19,13.23A3.19,3.19,0,1,1,79,10.07h0A3.2,3.2,0,0,1,82.19,13.23Zm-6,0A2.8,2.8,0,1,0,79,10.44a2.8,2.8,0,0,0-2.81,2.79Z"/><path class="cls-1" d="M88.7,16.51,83.53,11v5.29h-.39V10.07l5.17,5.49V10.15h.39Z"/><path class="cls-1" d="M92.88,11.16a1.41,1.41,0,0,0-1.25-.73,1.16,1.16,0,0,0-1.16,1.16v0c0,.64.61.91,1.11,1.15l1.18.61a1.35,1.35,0,0,1,.7,1.22,1.88,1.88,0,0,1-1.93,1.79,1.9,1.9,0,0,1-1.81-1.32l.34-.15A1.56,1.56,0,0,0,91.55,16a1.5,1.5,0,0,0,1.51-1.46c0-.69-.71-1-1.24-1.25l-1.11-.59a1.23,1.23,0,0,1-.64-1.1,1.5,1.5,0,0,1,1.44-1.56h.13a1.73,1.73,0,0,1,1.5.87Z"/><path class="cls-1" d="M98.2,10.15h.39V14a2.4,2.4,0,0,1-.42,1.68,2.31,2.31,0,0,1-3.27.08l-.08-.08A2.4,2.4,0,0,1,94.4,14V10.15h.39v3.72a2.51,2.51,0,0,0,.32,1.55,1.89,1.89,0,0,0,2.67.09l.09-.09a2.51,2.51,0,0,0,.32-1.55Z"/><path class="cls-1" d="M100.25,15.94h1.57v.37h-2V10.15h.39Z"/><path class="cls-1" d="M103.65,16.3h-.39V10.56h-1.59v-.37h3.57v.37h-1.59Z"/><path class="cls-1" d="M106.35,16.3H106V10.15h.39Z"/><path class="cls-1" d="M113.23,16.51,108.06,11v5.29h-.39V10.07l5.17,5.49V10.15h.39Z"/><path class="cls-1" d="M120.32,13.34a2.71,2.71,0,0,1-.64,2A3.17,3.17,0,1,1,117.39,10a3.25,3.25,0,0,1,2.67,1.44l-.32.25a2.82,2.82,0,0,0-2.37-1.32,2.86,2.86,0,0,0-2.79,2.79A2.81,2.81,0,0,0,117.37,16a2.94,2.94,0,0,0,1.81-.68,2.06,2.06,0,0,0,.75-1.63h-2.2v-.37Z"/><path class="cls-1" d="M129.58,13.34a2.71,2.71,0,0,1-.64,2A3.17,3.17,0,1,1,126.65,10a3.25,3.25,0,0,1,2.67,1.44l-.32.25a2.82,2.82,0,0,0-2.37-1.32,2.86,2.86,0,0,0-2.79,2.79A2.81,2.81,0,0,0,126.63,16a2.94,2.94,0,0,0,1.81-.68,2.06,2.06,0,0,0,.75-1.63H127v-.37Z"/><path class="cls-1" d="M133.59,16.3h-.45l-2-2.91h-.2V16.3h-.39V10.15h.77a2.26,2.26,0,0,1,1.4.31,1.55,1.55,0,0,1,.62,1.32,1.55,1.55,0,0,1-1.47,1.62h-.29ZM131.44,13a1.53,1.53,0,0,0,1.08-.29,1.23,1.23,0,0,0,.43-1,1.17,1.17,0,0,0-.65-1.11,2.62,2.62,0,0,0-1.1-.14h-.25V13Z"/><path class="cls-1" d="M140.54,13.23a3.19,3.19,0,1,1-3.22-3.16h0A3.2,3.2,0,0,1,140.54,13.23Zm-6,0a2.8,2.8,0,1,0,2.81-2.79h0a2.82,2.82,0,0,0-2.79,2.79Z"/><path class="cls-1" d="M145.23,10.15h.39V14a2.4,2.4,0,0,1-.42,1.68,2.31,2.31,0,0,1-3.27.08l-.08-.08a2.4,2.4,0,0,1-.42-1.68V10.15h.39v3.72a2.51,2.51,0,0,0,.32,1.55,1.89,1.89,0,0,0,2.67.09l.09-.09a2.51,2.51,0,0,0,.32-1.55Z"/><path class="cls-1" d="M147.28,16.3h-.39V10.15H148a1.92,1.92,0,0,1,1.33.36,1.71,1.71,0,0,1,.06,2.42l-.06.06a2,2,0,0,1-1.37.39h-.69ZM148,13a1.48,1.48,0,0,0,1.08-.33,1.21,1.21,0,0,0,.4-.92,1.23,1.23,0,0,0-.46-1,1.71,1.71,0,0,0-1.08-.24h-.64V13Z"/><path class="cls-1" d="M3.16,26.49a1.41,1.41,0,0,0-1.25-.73A1.16,1.16,0,0,0,.75,26.92v0c0,.64.61.91,1.11,1.15L3,28.7a1.35,1.35,0,0,1,.7,1.22,1.88,1.88,0,0,1-1.93,1.79A1.9,1.9,0,0,1,0,30.39l.34-.15a1.56,1.56,0,0,0,1.49,1.11A1.5,1.5,0,0,0,3.35,29.9c0-.69-.71-1-1.24-1.25L1,28.06A1.23,1.23,0,0,1,.36,27,1.5,1.5,0,0,1,1.8,25.4h.13a1.73,1.73,0,0,1,1.5.87Z"/><path class="cls-1" d="M6.12,31.63H5.73V25.84H4.14v-.37H7.71v.37H6.12Z"/><path class="cls-1" d="M8.82,25.84v2.24H11.3v.37H8.82v2.81h2.55v.37H8.43V25.48h2.94v.37Z"/><path class="cls-1" d="M16.29,25.48h.39v3.84A2.4,2.4,0,0,1,16.26,31a2.31,2.31,0,0,1-3.27.08L12.91,31a2.4,2.4,0,0,1-.42-1.68V25.48h.39V29.2a2.51,2.51,0,0,0,.32,1.55,1.89,1.89,0,0,0,2.67.09l.09-.09a2.51,2.51,0,0,0,.32-1.55Z"/><path class="cls-1" d="M18.35,25.84v2.24h2.48v.37H18.35v2.81H20.9v.37H18V25.48h2.94v.37Z"/><path class="cls-1" d="M25.14,31.63h-.45l-2-2.91h-.2v2.91H22.1V25.48h.77a2.27,2.27,0,0,1,1.4.31,1.65,1.65,0,0,1-1.14,2.93ZM23,28.35a1.53,1.53,0,0,0,1.08-.29,1.23,1.23,0,0,0,.43-1,1.17,1.17,0,0,0-.65-1.11,2.62,2.62,0,0,0-1.1-.14h-.25v2.51Z"/><path class="cls-1" d="M31.64,31.83l-5.17-5.49v5.29h-.39V25.4l5.17,5.45V25.48h.39Z"/><path class="cls-2" d="M36.43,29.56a.33.33,0,1,1-.33-.33.33.33,0,0,1,.33.33Z"/><path class="cls-1" d="M40.56,31.63V25.48h1.23a1.78,1.78,0,0,1,1.27.36,1.61,1.61,0,0,1,.51,1.27,1.33,1.33,0,0,1-.71,1.26,1.55,1.55,0,0,1,1.27,1.55,1.62,1.62,0,0,1-.57,1.27,2,2,0,0,1-1.44.44ZM41,28.27h.68a1.66,1.66,0,0,0,1.1-.23,1.08,1.08,0,0,0,.46-1,1.16,1.16,0,0,0-.51-1,1.93,1.93,0,0,0-1-.2H41Zm0,3h.94A2.15,2.15,0,0,0,43.15,31a1.3,1.3,0,0,0,.6-1.09,1.21,1.21,0,0,0-.64-1.1,3.06,3.06,0,0,0-1.3-.2h-.87Z"/><path class="cls-1" d="M45.56,25.84v2.24H48v.37H45.56v2.81h2.55v.37H45.17V25.48h2.94v.37Z"/><path class="cls-1" d="M52.35,31.63H51.9l-2-2.91h-.2v2.91h-.39V25.48h.77a2.27,2.27,0,0,1,1.4.31,1.65,1.65,0,0,1-1.14,2.93ZM50.2,28.35a1.53,1.53,0,0,0,1.08-.29,1.23,1.23,0,0,0,.43-1,1.17,1.17,0,0,0-.65-1.11,2.62,2.62,0,0,0-1.1-.14H49.7v2.51Z"/><path class="cls-1" d="M53.9,29.56l-.82,2h-.4l2.58-6.36,2.57,6.36h-.4l-.82-2Zm1.35-3.34-1.21,3h2.41Z"/><path class="cls-1" d="M59.24,31.63h-.39V25.84H57.26v-.37h3.57v.37H59.24Z"/><path class="cls-1" d="M65.28,25.48h.39v3.84A2.4,2.4,0,0,1,65.25,31a2.31,2.31,0,0,1-3.27.08L61.9,31a2.4,2.4,0,0,1-.42-1.68V25.48h.39V29.2a2.51,2.51,0,0,0,.32,1.55,1.89,1.89,0,0,0,2.67.09l.09-.09a2.51,2.51,0,0,0,.32-1.55Z"/><path class="cls-1" d="M72.49,31.83l-5.17-5.49v5.29h-.39V25.4l5.17,5.45V25.48h.39Z"/><path class="cls-1" d="M79.59,28.67a2.71,2.71,0,0,1-.64,2,3.14,3.14,0,1,1,.38-3.88L79,27a2.82,2.82,0,0,0-2.37-1.32,2.86,2.86,0,0,0-2.8,2.84,2.81,2.81,0,0,0,2.79,2.79,2.94,2.94,0,0,0,1.81-.68A2.06,2.06,0,0,0,79.19,29H77v-.37Z"/><path class="cls-2" d="M84,29.56a.33.33,0,1,1-.33-.33.33.33,0,0,1,.33.33Z"/><path class="cls-1" d="M88.53,31.63h-.39V25.48h1.09a1.92,1.92,0,0,1,1.33.36,1.71,1.71,0,0,1,.06,2.42l-.06.06a2,2,0,0,1-1.37.39H88.5Zm.71-3.29A1.48,1.48,0,0,0,90.32,28a1.21,1.21,0,0,0,.4-.92,1.23,1.23,0,0,0-.46-1,1.71,1.71,0,0,0-1.08-.24h-.64v2.5Z"/><path class="cls-1" d="M95,31.63h-.45l-2-2.91h-.2v2.91H92V25.48h.77a2.27,2.27,0,0,1,1.4.31A1.65,1.65,0,0,1,93,28.72Zm-2.15-3.28A1.53,1.53,0,0,0,94,28.06a1.23,1.23,0,0,0,.43-1,1.17,1.17,0,0,0-.65-1.11,2.62,2.62,0,0,0-1.1-.14h-.25v2.51Z"/><path class="cls-1" d="M99.71,25.48h.39v3.84A2.4,2.4,0,0,1,99.68,31a2.31,2.31,0,0,1-3.27.08L96.33,31a2.4,2.4,0,0,1-.42-1.68V25.48h.39V29.2a2.51,2.51,0,0,0,.32,1.55,1.89,1.89,0,0,0,2.67.09l.09-.09a2.51,2.51,0,0,0,.32-1.55Zm-2.13-1.12a.33.33,0,1,1-.33-.33.33.33,0,0,1,.33.33Zm1.53,0a.33.33,0,1,1-.33-.33.33.33,0,0,1,.33.33Z"/><path class="cls-1" d="M101.76,25.84v2.24h2v.37h-2v3.18h-.39V25.48h2.48v.37Z"/><path class="cls-1" d="M108.72,25.48h.39v3.84a2.4,2.4,0,0,1-.42,1.68,2.31,2.31,0,0,1-3.27.08l-.08-.08a2.4,2.4,0,0,1-.42-1.68V25.48h.39V29.2a2.51,2.51,0,0,0,.32,1.55,1.89,1.89,0,0,0,2.67.09l.09-.09a2.51,2.51,0,0,0,.32-1.55Z"/><path class="cls-1" d="M115.94,31.83l-5.17-5.49v5.29h-.39V25.4l5.17,5.45V25.48h.39Z"/><path class="cls-1" d="M123,28.67a2.71,2.71,0,0,1-.64,2,3.14,3.14,0,1,1,.38-3.88l-.32.25A2.82,2.82,0,0,0,120,25.72a2.86,2.86,0,0,0-2.76,2.84,2.81,2.81,0,0,0,2.79,2.79,2.94,2.94,0,0,0,1.81-.68,2.06,2.06,0,0,0,.75-1.63h-2.2v-.37Z"/><path class="cls-2" d="M127.46,29.56a.33.33,0,1,1-.33-.33.33.33,0,0,1,.33.33Z"/><path class="cls-1" d="M134.63,31.63h-.45l-2-2.91H132v2.91h-.39V25.48h.77a2.27,2.27,0,0,1,1.4.31,1.65,1.65,0,0,1-1.14,2.93Zm-2.15-3.28a1.53,1.53,0,0,0,1.08-.29,1.23,1.23,0,0,0,.43-1,1.17,1.17,0,0,0-.65-1.11,2.62,2.62,0,0,0-1.1-.14H132v2.51Z"/><path class="cls-1" d="M136,25.84v2.24h2.48v.37H136v2.81h2.55v.37h-2.94V25.48h2.94v.37Z"/><path class="cls-1" d="M144.6,26.73a2.81,2.81,0,0,0-2.07-1,2.86,2.86,0,0,0-2.8,2.83,2.68,2.68,0,0,0,.82,1.9,3,3,0,0,0,2,.85,2.93,2.93,0,0,0,2.07-.94v.54a3.17,3.17,0,1,1-2-5.55,3.05,3.05,0,0,1,2,.8Z"/><path class="cls-1" d="M149.88,28.09V25.48h.39v6.15h-.39V28.46h-3.74v3.17h-.39V25.48h.39v2.61Z"/><path class="cls-1" d="M153,31.63h-.39V25.84H151v-.37h3.57v.37H153Z"/><path class="cls-2" d="M6.71,21A1.6,1.6,0,0,1,5,22.56H5a1.56,1.56,0,0,1-.25-3.11H5A1.61,1.61,0,0,1,6.71,21S6.71,21,6.71,21Z"/><line class="cls-3" x1="5.28" y1="20.84" x2="170.16" y2="17.84"/></svg>