<?xml version="1.0" encoding="utf-8"?>
<!-- Generator: Adobe Illustrator 21.0.0, SVG Export Plug-In . SVG Version: 6.00 Build 0)  -->
<svg version="1.1" id="Ebene_1" xmlns="http://www.w3.org/2000/svg" xmlns:xlink="http://www.w3.org/1999/xlink" x="0px" y="0px"
	 viewBox="0 0 170.2 31.8" style="enable-background:new 0 0 170.2 31.8;" xml:space="preserve">
<style type="text/css">
	.st0{fill:#FFFFFF;}
	.st1{fill:none;stroke:#FFFFFF;stroke-width:0.5;stroke-miterlimit:10;}
</style>
<title>logo</title>
<path class="st0" d="M4.6,14.2l-0.9,2.2H0.2L5.1,3.9h3.6l4.8,12.4H10l-0.8-2.2H4.6z M6.9,7.8L6.9,7.8l-1.4,4h2.7L6.9,7.8z"/>
<path class="st0" d="M14.6,3.9h3.3l6.1,7.7l0,0V3.9h3.3v12.4H24l-6.1-7.6l0,0v7.6h-3.3V3.9z"/>
<path class="st0" d="M29.5,3.9h4.7c3.5-0.1,6.4,2.7,6.5,6.2c0,0,0,0,0,0l0,0c-0.1,3.5-3,6.3-6.5,6.2c0,0,0,0,0,0h-4.7V3.9z
	 M32.8,13.6h0.7c2,0,3.7-1.1,3.7-3.5c0.1-1.8-1.3-3.4-3.1-3.5c-0.2,0-0.3,0-0.5,0h-0.8L32.8,13.6z"/>
<path class="st0" d="M52.8,16.3h-4.1l-3.1-4.8l0,0v4.8h-3.3V3.9h5c2.5,0,4.4,1.2,4.4,3.8c0.1,1.7-1.1,3.2-2.8,3.5L52.8,16.3z
	 M45.5,9.5h0.3c1.1,0,2.3-0.2,2.3-1.6s-1.2-1.6-2.3-1.6h-0.3V9.5z"/>
<path class="st0" d="M57,14.2l-0.9,2.2h-3.5l4.9-12.4h3.6l4.8,12.4h-3.5l-0.8-2.2H57z M59.3,7.8L59.3,7.8l-1.4,4h2.8L59.3,7.8z"/>
<path class="st0" d="M63.1,1.7c0,0.9-0.7,1.7-1.7,1.7c-0.9,0-1.7-0.7-1.7-1.7S60.5,0,61.4,0c0,0,0,0,0,0C62.4,0,63.1,0.7,63.1,1.7z"
	/>
<path class="st0" d="M59,1.7c0,0.9-0.7,1.7-1.7,1.7c-0.9,0-1.7-0.7-1.7-1.7S56.4,0,57.3,0c0,0,0,0,0,0C58.3,0,59,0.7,59,1.7z"/>
<path class="st0" d="M75,11.4c-0.5-0.6-1.3-1-2.1-1c-1.5,0-2.8,1.3-2.8,2.8c0,0.7,0.3,1.4,0.8,1.9c0.5,0.5,1.3,0.8,2,0.9
	c0.8,0,1.5-0.3,2.1-0.9v0.5c-1.3,1.2-3.3,1-4.5-0.3s-1-3.3,0.3-4.5c0.6-0.5,1.4-0.8,2.2-0.8c0.7,0,1.5,0.3,2,0.8V11.4z"/>
<path class="st0" d="M82.2,13.2c0,1.8-1.4,3.2-3.2,3.2c-1.8,0-3.2-1.4-3.2-3.2c0-1.8,1.4-3.2,3.2-3.2c0,0,0,0,0,0l0,0
	C80.7,10.1,82.2,11.5,82.2,13.2z M76.2,13.2c0,1.5,1.2,2.8,2.8,2.8c1.5,0,2.8-1.2,2.8-2.8c0-1.5-1.2-2.8-2.8-2.8
	C77.5,10.4,76.2,11.7,76.2,13.2C76.2,13.2,76.2,13.2,76.2,13.2z"/>
<path class="st0" d="M88.7,16.5L83.5,11v5.3h-0.4v-6.2l5.2,5.5v-5.4h0.4V16.5z"/>
<path class="st0" d="M92.9,11.2c-0.3-0.5-0.7-0.7-1.2-0.7c-0.6,0-1.2,0.5-1.2,1.2c0,0,0,0,0,0l0,0c0,0.6,0.6,0.9,1.1,1.1l1.2,0.6
	c0.4,0.2,0.7,0.7,0.7,1.2c0,1-0.9,1.8-1.9,1.8c-0.8,0-1.6-0.5-1.8-1.3l0.3-0.1c0.2,0.7,0.8,1.1,1.5,1.1c0.8,0,1.5-0.6,1.5-1.5
	c0-0.7-0.7-1-1.2-1.2l-1.1-0.6c-0.4-0.2-0.6-0.6-0.6-1.1c0-0.8,0.6-1.5,1.4-1.6c0,0,0,0,0,0h0.1c0.6,0,1.2,0.3,1.5,0.9L92.9,11.2z"
	/>
<path class="st0" d="M98.2,10.2h0.4V14c0.1,0.6-0.1,1.2-0.4,1.7c-0.9,0.9-2.3,1-3.3,0.1c0,0,0,0,0,0l-0.1-0.1
	c-0.3-0.5-0.5-1.1-0.4-1.7v-3.9h0.4v3.7c-0.1,0.5,0,1.1,0.3,1.6c0.7,0.8,1.9,0.8,2.7,0.1l0.1-0.1c0.3-0.5,0.4-1,0.3-1.6L98.2,10.2z"
	/>
<path class="st0" d="M100.2,15.9h1.6v0.4h-2v-6.2h0.4L100.2,15.9z"/>
<path class="st0" d="M103.7,16.3h-0.4v-5.7h-1.6v-0.4h3.6v0.4h-1.6L103.7,16.3z"/>
<path class="st0" d="M106.3,16.3H106v-6.1h0.4L106.3,16.3z"/>
<path class="st0" d="M113.2,16.5l-5.2-5.5v5.3h-0.4v-6.2l5.2,5.5v-5.4h0.4L113.2,16.5z"/>
<path class="st0" d="M120.3,13.3c0.1,0.7-0.2,1.4-0.6,2c-1.2,1.3-3.2,1.3-4.5,0.1s-1.3-3.2-0.1-4.5c0.6-0.6,1.4-1,2.3-1
	c1.1,0,2.1,0.5,2.7,1.4l-0.3,0.2c-0.5-0.8-1.4-1.3-2.4-1.3c-1.5,0-2.8,1.3-2.8,2.8c0,1.6,1.2,2.8,2.8,2.8c0,0,0,0,0,0
	c0.7,0,1.3-0.3,1.8-0.7c0.5-0.4,0.8-1,0.8-1.6h-2.2v-0.4L120.3,13.3z"/>
<path class="st0" d="M129.6,13.3c0.1,0.7-0.2,1.4-0.6,2c-1.2,1.3-3.2,1.3-4.5,0.1s-1.3-3.2-0.1-4.5c0.6-0.6,1.4-1,2.3-1
	c1.1,0,2.1,0.5,2.7,1.4l-0.3,0.2c-0.5-0.8-1.4-1.3-2.4-1.3c-1.5,0-2.8,1.3-2.8,2.8c0,1.6,1.2,2.8,2.8,2.8c0,0,0,0,0,0
	c0.7,0,1.3-0.3,1.8-0.7c0.5-0.4,0.8-1,0.8-1.6H127v-0.4L129.6,13.3z"/>
<path class="st0" d="M133.6,16.3h-0.4l-2-2.9h-0.2v2.9h-0.4v-6.1h0.8c0.5-0.1,1,0.1,1.4,0.3c0.4,0.3,0.6,0.8,0.6,1.3
	c0,0.9-0.6,1.6-1.5,1.6h-0.3L133.6,16.3z M131.4,13c0.4,0,0.8-0.1,1.1-0.3c0.3-0.2,0.4-0.6,0.4-1c0-0.5-0.2-0.9-0.6-1.1
	c-0.4-0.1-0.7-0.2-1.1-0.1h-0.2V13H131.4z"/>
<path class="st0" d="M140.5,13.2c0,1.8-1.4,3.2-3.2,3.2c-1.8,0-3.2-1.4-3.2-3.2c0-1.8,1.4-3.2,3.2-3.2l0,0
	C139.1,10.1,140.5,11.5,140.5,13.2z M134.5,13.2c0,1.5,1.2,2.8,2.8,2.8c1.5,0,2.8-1.2,2.8-2.8c0-1.5-1.2-2.8-2.8-2.8l0,0
	C135.8,10.5,134.6,11.7,134.5,13.2L134.5,13.2z"/>
<path class="st0" d="M145.2,10.2h0.4V14c0.1,0.6-0.1,1.2-0.4,1.7c-0.9,0.9-2.3,1-3.3,0.1c0,0,0,0,0,0l-0.1-0.1
	c-0.3-0.5-0.5-1.1-0.4-1.7v-3.9h0.4v3.7c-0.1,0.5,0,1.1,0.3,1.6c0.7,0.8,1.9,0.8,2.7,0.1l0.1-0.1c0.3-0.5,0.4-1,0.3-1.6L145.2,10.2z
	"/>
<path class="st0" d="M147.3,16.3h-0.4v-6.1h1.1c0.5,0,0.9,0.1,1.3,0.4c0.7,0.7,0.7,1.7,0.1,2.4c0,0,0,0,0,0l-0.1,0.1
	c-0.4,0.3-0.9,0.4-1.4,0.4h-0.7L147.3,16.3z M148,13c0.4,0,0.8-0.1,1.1-0.3c0.3-0.2,0.4-0.6,0.4-0.9c0-0.4-0.2-0.8-0.5-1
	c-0.3-0.2-0.7-0.3-1.1-0.2h-0.6V13H148z"/>
<path class="st0" d="M3.2,26.5c-0.3-0.5-0.7-0.7-1.2-0.7c-0.6,0-1.2,0.5-1.2,1.2l0,0l0,0c0,0.6,0.6,0.9,1.1,1.1L3,28.7
	c0.4,0.2,0.7,0.7,0.7,1.2c0,1-0.9,1.8-1.9,1.8c-0.8,0-1.5-0.5-1.8-1.3l0.3-0.1c0.2,0.7,0.8,1.1,1.5,1.1c0.8,0,1.5-0.6,1.5-1.5
	c0-0.7-0.7-1-1.2-1.2L1,28.1c-0.4-0.2-0.6-0.6-0.6-1.1c-0.1-0.8,0.6-1.5,1.4-1.6c0,0,0,0,0,0h0.1c0.6,0,1.2,0.3,1.5,0.9L3.2,26.5z"
	/>
<path class="st0" d="M6.1,31.6H5.7v-5.8H4.1v-0.4h3.6v0.4H6.1V31.6z"/>
<path class="st0" d="M8.8,25.8v2.2h2.5v0.4H8.8v2.8h2.6v0.4H8.4v-6.2h2.9v0.4L8.8,25.8z"/>
<path class="st0" d="M16.3,25.5h0.4v3.8c0.1,0.6-0.1,1.2-0.4,1.7c-0.9,0.9-2.3,1-3.3,0.1c0,0,0,0,0,0L12.9,31
	c-0.3-0.5-0.5-1.1-0.4-1.7v-3.8h0.4v3.7c-0.1,0.5,0,1.1,0.3,1.5c0.7,0.8,1.9,0.8,2.7,0.1l0.1-0.1c0.3-0.5,0.4-1,0.3-1.5L16.3,25.5z"
	/>
<path class="st0" d="M18.4,25.8v2.2h2.5v0.4h-2.5v2.8h2.5v0.4H18v-6.2h2.9v0.4L18.4,25.8z"/>
<path class="st0" d="M25.1,31.6h-0.5l-2-2.9h-0.2v2.9h-0.4v-6.1h0.8c0.5-0.1,1,0.1,1.4,0.3c0.7,0.6,0.8,1.6,0.2,2.3
	c-0.3,0.4-0.9,0.6-1.4,0.6L25.1,31.6z M23,28.4c0.4,0,0.8-0.1,1.1-0.3c0.3-0.2,0.4-0.6,0.4-1c0-0.5-0.2-0.9-0.6-1.1
	c-0.4-0.1-0.7-0.2-1.1-0.1h-0.2v2.5L23,28.4z"/>
<path class="st0" d="M31.6,31.8l-5.2-5.5v5.3h-0.4v-6.2l5.2,5.4v-5.4h0.4V31.8z"/>
<path class="st0" d="M36.4,29.6c0,0.2-0.1,0.3-0.3,0.3c-0.2,0-0.3-0.1-0.3-0.3c0-0.2,0.1-0.3,0.3-0.3S36.4,29.4,36.4,29.6L36.4,29.6
	z"/>
<path class="st0" d="M40.6,31.6v-6.1h1.2c0.5,0,0.9,0.1,1.3,0.4c0.4,0.3,0.5,0.8,0.5,1.3c0,0.5-0.2,1-0.7,1.3
	c0.7,0.1,1.3,0.8,1.3,1.5c0,0.5-0.2,1-0.6,1.3c-0.4,0.3-0.9,0.5-1.4,0.4L40.6,31.6z M41,28.3h0.7c0.4,0.1,0.8,0,1.1-0.2
	c0.3-0.2,0.5-0.6,0.5-1c0-0.4-0.2-0.8-0.5-1c-0.3-0.2-0.7-0.2-1-0.2H41V28.3z M41,31.3h0.9c0.4,0,0.8-0.1,1.2-0.3
	c0.4-0.2,0.6-0.6,0.6-1.1c0-0.5-0.2-0.9-0.6-1.1c-0.4-0.2-0.9-0.2-1.3-0.2h-0.9L41,31.3z"/>
<path class="st0" d="M45.6,25.8v2.2H48v0.4h-2.4v2.8h2.5v0.4h-2.9v-6.2h2.9v0.4L45.6,25.8z"/>
<path class="st0" d="M52.3,31.6h-0.4l-2-2.9h-0.2v2.9h-0.4v-6.1h0.8c0.5-0.1,1,0.1,1.4,0.3c0.7,0.6,0.8,1.6,0.2,2.3
	c-0.3,0.4-0.9,0.6-1.4,0.6L52.3,31.6z M50.2,28.4c0.4,0,0.8-0.1,1.1-0.3c0.3-0.2,0.4-0.6,0.4-1c0-0.5-0.2-0.9-0.7-1.1
	c-0.4-0.1-0.7-0.2-1.1-0.1h-0.3v2.5L50.2,28.4z"/>
<path class="st0" d="M53.9,29.6l-0.8,2h-0.4l2.6-6.4l2.6,6.4h-0.4l-0.8-2H53.9z M55.2,26.2l-1.2,3h2.4L55.2,26.2z"/>
<path class="st0" d="M59.2,31.6h-0.4v-5.8h-1.6v-0.4h3.6v0.4h-1.6V31.6z"/>
<path class="st0" d="M65.3,25.5h0.4v3.8c0.1,0.6-0.1,1.2-0.4,1.7c-0.9,0.9-2.3,1-3.3,0.1c0,0,0,0,0,0L61.9,31
	c-0.3-0.5-0.5-1.1-0.4-1.7v-3.8h0.4v3.7c-0.1,0.5,0,1.1,0.3,1.5c0.7,0.8,1.9,0.8,2.7,0.1l0.1-0.1c0.3-0.5,0.4-1,0.3-1.5L65.3,25.5z"
	/>
<path class="st0" d="M72.5,31.8l-5.2-5.5v5.3h-0.4v-6.2l5.2,5.4v-5.4h0.4V31.8z"/>
<path class="st0" d="M79.6,28.7c0.1,0.7-0.2,1.4-0.6,2c-1.2,1.2-3.2,1.3-4.4,0.1c-1.2-1.2-1.3-3.2-0.1-4.4c1.2-1.2,3.2-1.3,4.4-0.1
	c0.2,0.2,0.3,0.4,0.5,0.6L79,27c-0.5-0.8-1.4-1.3-2.4-1.3c-1.5,0-2.8,1.3-2.8,2.8c0,1.5,1.3,2.8,2.8,2.8c0.7,0,1.3-0.3,1.8-0.7
	c0.5-0.4,0.8-1,0.8-1.6H77v-0.4L79.6,28.7z"/>
<path class="st0" d="M84,29.6c0,0.2-0.1,0.3-0.3,0.3c-0.2,0-0.3-0.1-0.3-0.3c0-0.2,0.1-0.3,0.3-0.3S84,29.4,84,29.6L84,29.6z"/>
<path class="st0" d="M88.5,31.6h-0.4v-6.1h1.1c0.5,0,0.9,0.1,1.3,0.4c0.7,0.7,0.7,1.7,0.1,2.4c0,0,0,0,0,0l-0.1,0.1
	c-0.4,0.3-0.9,0.4-1.4,0.4h-0.7L88.5,31.6z M89.2,28.3c0.4,0,0.8-0.1,1.1-0.3c0.3-0.2,0.4-0.6,0.4-0.9c0-0.4-0.2-0.8-0.5-1
	c-0.3-0.2-0.7-0.3-1.1-0.2h-0.6v2.5H89.2z"/>
<path class="st0" d="M95,31.6h-0.4l-2-2.9h-0.2v2.9H92v-6.1h0.8c0.5-0.1,1,0.1,1.4,0.3c0.7,0.6,0.8,1.6,0.3,2.3
	c-0.3,0.4-0.9,0.7-1.4,0.6L95,31.6z M92.8,28.4c0.4,0.1,0.8,0,1.2-0.3c0.3-0.2,0.4-0.6,0.4-1c0-0.5-0.2-0.9-0.7-1.1
	c-0.4-0.1-0.7-0.2-1.1-0.1h-0.2v2.5L92.8,28.4z"/>
<path class="st0" d="M99.7,25.5h0.4v3.8c0.1,0.6-0.1,1.2-0.4,1.7c-0.9,0.9-2.3,1-3.3,0.1c0,0,0,0,0,0L96.3,31
	c-0.3-0.5-0.5-1.1-0.4-1.7v-3.8h0.4v3.7c-0.1,0.5,0,1.1,0.3,1.5c0.7,0.8,1.9,0.8,2.7,0.1l0.1-0.1c0.3-0.5,0.4-1,0.3-1.5L99.7,25.5z
	 M97.6,24.4c0,0.2-0.1,0.3-0.3,0.3c-0.2,0-0.3-0.1-0.3-0.3c0-0.2,0.1-0.3,0.3-0.3S97.6,24.2,97.6,24.4L97.6,24.4z M99.1,24.4
	c0,0.2-0.1,0.3-0.3,0.3c-0.2,0-0.3-0.1-0.3-0.3c0-0.2,0.1-0.3,0.3-0.3S99.1,24.2,99.1,24.4L99.1,24.4z"/>
<path class="st0" d="M101.8,25.8v2.2h2v0.4h-2v3.2h-0.4v-6.2h2.5v0.4L101.8,25.8z"/>
<path class="st0" d="M108.7,25.5h0.4v3.8c0.1,0.6-0.1,1.2-0.4,1.7c-0.9,0.9-2.3,1-3.3,0.1c0,0,0,0,0,0l-0.1-0.1
	c-0.3-0.5-0.5-1.1-0.4-1.7v-3.8h0.4v3.7c-0.1,0.5,0,1.1,0.3,1.5c0.7,0.8,1.9,0.8,2.7,0.1l0.1-0.1c0.3-0.5,0.4-1,0.3-1.5L108.7,25.5z
	"/>
<path class="st0" d="M115.9,31.8l-5.2-5.5v5.3h-0.4v-6.2l5.2,5.4v-5.4h0.4V31.8z"/>
<path class="st0" d="M123,28.7c0.1,0.7-0.2,1.4-0.6,2c-1.2,1.2-3.2,1.3-4.4,0.1c-1.2-1.2-1.3-3.2-0.1-4.4c1.2-1.2,3.2-1.3,4.4-0.1
	c0.2,0.2,0.3,0.4,0.5,0.6l-0.3,0.2c-0.5-0.8-1.4-1.3-2.4-1.3c-1.5,0.1-2.8,1.3-2.8,2.8c0,1.5,1.3,2.8,2.8,2.8c0.7,0,1.3-0.3,1.8-0.7
	c0.5-0.4,0.8-1,0.8-1.6h-2.2v-0.4L123,28.7z"/>
<path class="st0" d="M127.5,29.6c0,0.2-0.1,0.3-0.3,0.3c-0.2,0-0.3-0.1-0.3-0.3c0-0.2,0.1-0.3,0.3-0.3S127.5,29.4,127.5,29.6
	L127.5,29.6z"/>
<path class="st0" d="M134.6,31.6h-0.4l-2-2.9H132v2.9h-0.4v-6.1h0.8c0.5-0.1,1,0.1,1.4,0.3c0.7,0.6,0.8,1.6,0.2,2.3
	c-0.3,0.4-0.9,0.6-1.4,0.6L134.6,31.6z M132.5,28.4c0.4,0,0.8-0.1,1.1-0.3c0.3-0.2,0.4-0.6,0.4-1c0-0.5-0.2-0.9-0.6-1.1
	c-0.4-0.1-0.7-0.2-1.1-0.1H132v2.5L132.5,28.4z"/>
<path class="st0" d="M136,25.8v2.2h2.5v0.4H136v2.8h2.6v0.4h-2.9v-6.2h2.9v0.4L136,25.8z"/>
<path class="st0" d="M144.6,26.7c-0.5-0.6-1.3-1-2.1-1c-1.5,0-2.8,1.3-2.8,2.8c0,0.7,0.3,1.4,0.8,1.9c0.5,0.5,1.3,0.8,2,0.9
	c0.8,0,1.5-0.4,2.1-0.9v0.5c-1.3,1.2-3.3,1-4.5-0.3c-1.2-1.3-1-3.3,0.3-4.5c0.6-0.5,1.4-0.8,2.2-0.8c0.7,0,1.5,0.3,2,0.8L144.6,26.7
	z"/>
<path class="st0" d="M149.9,28.1v-2.6h0.4v6.1h-0.4v-3.2h-3.7v3.2h-0.4v-6.1h0.4v2.6H149.9z"/>
<path class="st0" d="M153,31.6h-0.4v-5.8H151v-0.4h3.6v0.4H153V31.6z"/>
<path class="st0" d="M6.7,21c0,0.9-0.8,1.6-1.6,1.6c0,0,0,0-0.1,0l0,0c-0.9,0.1-1.6-0.6-1.7-1.4c-0.1-0.9,0.6-1.6,1.4-1.7H5
	C5.9,19.4,6.7,20.1,6.7,21C6.7,21,6.7,21,6.7,21L6.7,21z"/>
<line class="st1" x1="5.3" y1="20.8" x2="170.2" y2="17.8"/>
</svg>
