<svg id="Ebene_1" data-name="Ebene 1" xmlns="http://www.w3.org/2000/svg" viewBox="0 0 112.55 24.9"><defs><style>.cls-1{fill:#bb0d26;}.cls-1,.cls-2{fill-rule:evenodd;}.cls-2,.cls-4{fill:#1a171b;}.cls-3{fill:#be0a26;}</style></defs><path class="cls-1" d="M31.5,25.16a.22.22,0,0,0-.22.22.22.22,0,0,0,.22.22.22.22,0,0,0,.23-.22A.22.22,0,0,0,31.5,25.16Z" transform="translate(-1.45 -2)"/><path class="cls-2" d="M34.82,24.78h.57a2.1,2.1,0,0,1,.86.13.8.8,0,0,1,.42.73.86.86,0,0,1-.4.72,1.4,1.4,0,0,1-.83.16h-.62Zm.78,2a1.35,1.35,0,0,0,.95-.29,1.06,1.06,0,0,0,.38-.84,1,1,0,0,0-.84-1,.88.88,0,0,0,.47-.83,1.05,1.05,0,0,0-.34-.84,1.18,1.18,0,0,0-.85-.24h-.81v4.07Zm-.78-3.83h.45a1.26,1.26,0,0,1,.69.13.76.76,0,0,1,.34.67.74.74,0,0,1-.3.66,1.17,1.17,0,0,1-.73.15h-.45Z" transform="translate(-1.45 -2)"/><polygon class="cls-2" points="38.15 20.93 38.15 20.69 36.21 20.69 36.21 24.76 38.15 24.76 38.15 24.52 36.47 24.52 36.47 22.66 38.11 22.66 38.11 22.41 36.47 22.41 36.47 20.93 38.15 20.93"/><path class="cls-2" d="M41.14,24.83a1,1,0,0,0,1.16-1.06,1,1,0,0,0-.41-.87,1.49,1.49,0,0,0-.93-.21h-.5v4.07h.25V24.83h.13l1.33,1.93h.3Zm-.43-.24V22.93h.17a1.77,1.77,0,0,1,.73.09.79.79,0,0,1,.43.74.81.81,0,0,1-.28.64,1,1,0,0,1-.72.19Z" transform="translate(-1.45 -2)"/><path class="cls-2" d="M45.33,25.42l.55,1.34h.26l-1.7-4.21-1.71,4.21H43l.54-1.34Zm-.1-.24H43.64l.8-2Z" transform="translate(-1.45 -2)"/><polygon class="cls-2" points="45.68 20.93 46.73 20.93 46.73 20.69 44.37 20.69 44.37 20.93 45.42 20.93 45.42 24.76 45.68 24.76 45.68 20.93"/><path class="cls-2" d="M51.18,25.15a1.67,1.67,0,0,1-.21,1,1.27,1.27,0,0,1-1.83,0,1.67,1.67,0,0,1-.21-1V22.69h-.26v2.54A1.57,1.57,0,0,0,49,26.34a1.48,1.48,0,0,0,1.1.48,1.5,1.5,0,0,0,1.11-.48,1.57,1.57,0,0,0,.28-1.11V22.69h-.26Z" transform="translate(-1.45 -2)"/><polygon class="cls-2" points="54.55 20.69 54.29 20.69 54.29 24.24 50.87 20.64 50.87 24.76 51.13 24.76 51.13 21.26 54.55 24.9 54.55 20.69"/><path class="cls-2" d="M59,24.8V25h1.46a1.36,1.36,0,0,1-.5,1.08,1.93,1.93,0,0,1-1.19.45A1.86,1.86,0,0,1,57,24.73a1.85,1.85,0,0,1,3.42-1l.21-.16a2.14,2.14,0,0,0-1.77-.95,2.09,2.09,0,1,0,1.51,3.52,1.79,1.79,0,0,0,.43-1.36Z" transform="translate(-1.45 -2)"/><path class="cls-1" d="M63.56,25.16a.22.22,0,0,0-.22.22.22.22,0,0,0,.22.22.22.22,0,0,0,.22-.22A.21.21,0,0,0,63.56,25.16Z" transform="translate(-1.45 -2)"/><path class="cls-2" d="M9.48,23.21a1.14,1.14,0,0,0-1-.57,1,1,0,0,0-1,1,.82.82,0,0,0,.42.73l.74.39c.35.17.82.36.82.82a1,1,0,0,1-1,1,1,1,0,0,1-1-.73l-.22.1a1.27,1.27,0,0,0,2.47-.31.9.9,0,0,0-.47-.81l-.77-.4c-.33-.16-.74-.34-.74-.76a.77.77,0,0,1,.77-.78,1,1,0,0,1,.83.48Z" transform="translate(-1.45 -2)"/><polygon class="cls-2" points="9.86 20.93 10.91 20.93 10.91 20.69 8.54 20.69 8.54 20.93 9.6 20.93 9.6 24.76 9.86 24.76 9.86 20.93"/><polygon class="cls-2" points="13.38 20.93 13.38 20.69 11.43 20.69 11.43 24.76 13.38 24.76 13.38 24.52 11.69 24.52 11.69 22.66 13.33 22.66 13.33 22.41 11.69 22.41 11.69 20.93 13.38 20.93"/><path class="cls-2" d="M18.15,25.15a1.61,1.61,0,0,1-.22,1,1.26,1.26,0,0,1-1.82,0,1.67,1.67,0,0,1-.21-1V22.69h-.26v2.54a1.61,1.61,0,0,0,.27,1.11,1.52,1.52,0,0,0,2.22,0,1.61,1.61,0,0,0,.27-1.11V22.69h-.25Z" transform="translate(-1.45 -2)"/><polygon class="cls-2" points="19.78 20.93 19.78 20.69 17.84 20.69 17.84 24.76 19.78 24.76 19.78 24.52 18.1 24.52 18.1 22.66 19.74 22.66 19.74 22.41 18.1 22.41 18.1 20.93 19.78 20.93"/><path class="cls-2" d="M22.77,24.83a1,1,0,0,0,1.16-1.06,1,1,0,0,0-.41-.87,1.49,1.49,0,0,0-.93-.21h-.51v4.07h.26V24.83h.13l1.33,1.93h.3Zm-.43-.24V22.93h.17a1.77,1.77,0,0,1,.73.09.79.79,0,0,1,.43.74.81.81,0,0,1-.28.64,1,1,0,0,1-.72.19Z" transform="translate(-1.45 -2)"/><polygon class="cls-2" points="27 20.69 26.74 20.69 26.74 24.24 23.32 20.64 23.32 24.76 23.58 24.76 23.58 21.26 27 24.9 27 20.69"/><path class="cls-2" d="M66.88,24.83h.45a1.34,1.34,0,0,0,.91-.26,1.06,1.06,0,0,0,.34-.81,1.07,1.07,0,0,0-.37-.83,1.25,1.25,0,0,0-.88-.24h-.71v4.07h.26Zm0-.24V22.93h.42a1.15,1.15,0,0,1,.71.16.82.82,0,0,1,.31.66.78.78,0,0,1-.26.61,1,1,0,0,1-.72.23Z" transform="translate(-1.45 -2)"/><path class="cls-2" d="M69.9,24.83a1,1,0,0,0,1.17-1.06,1,1,0,0,0-.41-.87,1.51,1.51,0,0,0-.93-.21h-.51v4.07h.26V24.83h.13l1.33,1.93h.29Zm-.42-.24V22.93h.17a1.74,1.74,0,0,1,.72.09.8.8,0,0,1,.44.74.82.82,0,0,1-.29.64,1,1,0,0,1-.71.19Z" transform="translate(-1.45 -2)"/><path class="cls-2" d="M72.75,21.73a.22.22,0,1,0,0,.44.22.22,0,0,0,0-.44Zm1,0a.22.22,0,1,0,0,.44.22.22,0,0,0,0-.44Zm.61,3.42a1.67,1.67,0,0,1-.21,1,1.26,1.26,0,0,1-1.82,0,1.67,1.67,0,0,1-.21-1V22.69h-.26v2.54a1.61,1.61,0,0,0,.27,1.11,1.52,1.52,0,0,0,2.22,0,1.61,1.61,0,0,0,.27-1.11V22.69h-.26Z" transform="translate(-1.45 -2)"/><polygon class="cls-2" points="75.71 20.93 75.71 20.69 74.07 20.69 74.07 24.76 74.33 24.76 74.33 22.66 75.67 22.66 75.67 22.41 74.33 22.41 74.33 20.93 75.71 20.93"/><path class="cls-2" d="M80.44,25.15a1.67,1.67,0,0,1-.21,1,1.26,1.26,0,0,1-1.82,0,1.67,1.67,0,0,1-.21-1V22.69h-.26v2.54a1.61,1.61,0,0,0,.27,1.11,1.52,1.52,0,0,0,2.22,0,1.61,1.61,0,0,0,.27-1.11V22.69h-.26Z" transform="translate(-1.45 -2)"/><polygon class="cls-2" points="83.81 20.69 83.56 20.69 83.56 24.24 80.14 20.64 80.14 24.76 80.4 24.76 80.4 21.26 83.81 24.9 83.81 20.69"/><path class="cls-2" d="M88.3,24.8V25h1.46a1.36,1.36,0,0,1-.5,1.08,2,2,0,0,1-1.2.45,1.86,1.86,0,0,1-1.85-1.84,1.9,1.9,0,0,1,1.85-1.85,1.85,1.85,0,0,1,1.57.87l.21-.16A2.11,2.11,0,1,0,88,26.82a2.14,2.14,0,0,0,1.55-.66A1.83,1.83,0,0,0,90,24.8Z" transform="translate(-1.45 -2)"/><path class="cls-1" d="M92.83,25.16a.21.21,0,0,0-.22.22.22.22,0,0,0,.22.22.22.22,0,0,0,.22-.22A.22.22,0,0,0,92.83,25.16Z" transform="translate(-1.45 -2)"/><path class="cls-2" d="M96.56,24.83a1,1,0,0,0,1.17-1.06,1,1,0,0,0-.41-.87,1.51,1.51,0,0,0-.93-.21h-.51v4.07h.26V24.83h.13l1.33,1.93h.3Zm-.42-.24V22.93h.17A1.79,1.79,0,0,1,97,23a.85.85,0,0,1,.14,1.38,1,1,0,0,1-.71.19Z" transform="translate(-1.45 -2)"/><polygon class="cls-2" points="99.06 20.93 99.06 20.69 97.11 20.69 97.11 24.76 99.06 24.76 99.06 24.52 97.38 24.52 97.38 22.66 99.02 22.66 99.02 22.41 97.38 22.41 97.38 20.93 99.06 20.93"/><path class="cls-2" d="M104.6,23.16a2.05,2.05,0,0,0-1.35-.52,2.09,2.09,0,1,0,1.35,3.67V26a1.82,1.82,0,0,1-2.68.06,1.76,1.76,0,0,1-.54-1.26,1.83,1.83,0,0,1,3.22-1.23Z" transform="translate(-1.45 -2)"/><polygon class="cls-2" points="104.21 22.42 104.21 20.69 103.95 20.69 103.95 24.76 104.21 24.76 104.21 22.66 106.68 22.66 106.68 24.76 106.94 24.76 106.94 20.69 106.68 20.69 106.68 22.42 104.21 22.42"/><polygon class="cls-2" points="108.78 20.93 109.83 20.93 109.83 20.69 107.47 20.69 107.47 20.93 108.52 20.93 108.52 24.76 108.78 24.76 108.78 20.93"/><path class="cls-3" d="M1.45,18.75A1.25,1.25,0,0,1,4,18.64L114,16v.23L4,18.86a1.25,1.25,0,0,1-2.5-.11Z" transform="translate(-1.45 -2)"/><path class="cls-4" d="M38.23,5.18h3.41a4.62,4.62,0,1,1,0,9.24H38.23Zm2.4,7.21h.54A2.43,2.43,0,0,0,43.83,9.8,2.43,2.43,0,0,0,41.2,7.22h-.57Z" transform="translate(-1.45 -2)"/><path class="cls-4" d="M54.4,14.42h-3l-2.27-3.55h0v3.55h-2.4V5.18H50.3c1.83,0,3.21.87,3.21,2.84a2.49,2.49,0,0,1-2,2.62Zm-5.29-5.1h.24c.78,0,1.66-.14,1.66-1.15S50.13,7,49.35,7h-.24Z" transform="translate(-1.45 -2)"/><path class="cls-4" d="M57.33,12.79l-.64,1.63H54.14L57.7,5.15h2.62l3.48,9.24H61.24l-.6-1.6ZM58.62,3.2A1.21,1.21,0,1,1,57.42,2,1.2,1.2,0,0,1,58.62,3.2ZM59,8h0L58,11h2ZM61.75,3.2A1.21,1.21,0,1,1,60.55,2,1.2,1.2,0,0,1,61.75,3.2Z" transform="translate(-1.45 -2)"/><path class="cls-4" d="M22,12.79l-.64,1.61H18.78l3.55-9.24H25l3.48,9.24H25.88l-.6-1.61ZM23.65,8h0l-1,2.94h2Z" transform="translate(-1.45 -2)"/><path class="cls-4" d="M28.51,5.18h2.4l4.4,5.65h0V5.18h2.4v9.24h-2.4l-4.4-5.66h0v5.66h-2.4Z" transform="translate(-1.45 -2)"/><path class="cls-2" d="M69.73,10.85a2,2,0,0,0-1.33-.52A2.06,2.06,0,1,0,69.73,14V13.6a1.93,1.93,0,0,1-1.35.61,2,2,0,0,1-1.29-.55,1.76,1.76,0,0,1-.53-1.24,1.86,1.86,0,0,1,1.82-1.85,1.83,1.83,0,0,1,1.35.64Z" transform="translate(-1.45 -2)"/><path class="cls-2" d="M72.36,10.33a2.06,2.06,0,1,0,2.08,2.06A2.09,2.09,0,0,0,72.36,10.33Zm0,.24a1.82,1.82,0,1,1-1.82,1.82A1.84,1.84,0,0,1,72.36,10.57Z" transform="translate(-1.45 -2)"/><polygon class="cls-2" points="77.28 8.39 77.03 8.39 77.03 11.89 73.66 8.33 73.66 12.4 73.92 12.4 73.92 8.95 77.28 12.53 77.28 8.39"/><path class="cls-2" d="M81.69,10.9a1.11,1.11,0,0,0-1-.57,1,1,0,0,0-1,1,.8.8,0,0,0,.41.72l.72.38c.35.17.81.36.81.81a1,1,0,0,1-1,1,1,1,0,0,1-1-.72l-.22.1a1.25,1.25,0,0,0,1.18.86,1.23,1.23,0,0,0,1.26-1.16.88.88,0,0,0-.46-.8l-.77-.4c-.32-.16-.72-.33-.72-.75a.76.76,0,0,1,.76-.77.92.92,0,0,1,.81.48Z" transform="translate(-1.45 -2)"/><path class="cls-2" d="M85,12.81a1.61,1.61,0,0,1-.21,1,1.22,1.22,0,0,1-1.79,0,1.61,1.61,0,0,1-.21-1V10.39h-.26v2.5A1.55,1.55,0,0,0,82.83,14,1.51,1.51,0,0,0,85,14a1.55,1.55,0,0,0,.27-1.09v-2.5H85Z" transform="translate(-1.45 -2)"/><polygon class="cls-2" points="84.96 8.39 84.71 8.39 84.71 12.4 85.98 12.4 85.98 12.16 84.96 12.16 84.96 8.39"/><polygon class="cls-2" points="87.23 8.63 88.27 8.63 88.27 8.39 85.94 8.39 85.94 8.63 86.98 8.63 86.98 12.4 87.23 12.4 87.23 8.63"/><rect class="cls-4" x="88.79" y="8.39" width="0.26" height="4.01"/><polygon class="cls-2" points="93.58 8.39 93.33 8.39 93.33 11.89 89.96 8.33 89.96 12.4 90.21 12.4 90.21 8.95 93.58 12.53 93.58 8.39"/><path class="cls-2" d="M98,12.47v.24h1.43A1.31,1.31,0,0,1,99,13.77a1.89,1.89,0,0,1-1.18.44A1.83,1.83,0,0,1,96,12.39a1.87,1.87,0,0,1,1.82-1.82,1.85,1.85,0,0,1,1.55.86l.21-.16a2.07,2.07,0,1,0-1.77,3.18,2.08,2.08,0,0,0,1.52-.65,1.75,1.75,0,0,0,.42-1.33Z" transform="translate(-1.45 -2)"/></svg>